# WaveFront *.obj file (generated by Autodesk ATF)

mtllib db266279-bcfe-48be-9314-71fe05a0e7f3.mtl

g Body1

v 35.000000 20.207259 -500.000000
v 35.000000 -20.207259 -500.000000
v -0.000000 -40.414519 -500.000000
v -35.000000 -20.207259 -500.000000
v -35.000000 20.207259 -500.000000
v 0.000000 40.414519 -500.000000
v -0.000000 -179.056181 459.528755
v -35.000000 -179.056081 479.736014
v -75.000000 -139.056195 456.641805
v -0.000000 -139.056410 413.340535
v -35.000000 -179.055880 520.150533
v -75.000000 -139.055765 543.244345
v -0.000000 -179.055780 540.357793
v 0.000000 -139.055550 586.545616
v 35.000000 -179.055880 520.150533
v 75.000000 -139.055765 543.244345
v 35.000000 -179.056081 479.736014
v 75.000000 -139.056195 456.641805
v -0.000000 -99.056181 459.528358
v 35.000000 -99.056081 479.735617
v -35.000000 -99.056081 479.735617
v -35.000000 -99.055880 520.150136
v 0.000000 -99.055780 540.357395
v 35.000000 -99.055880 520.150136
v 35.000000 -49.527985 520.149890
v 0.000000 -49.527981 540.357150
v -35.000000 -49.527985 520.149890
v -35.000000 -49.527995 479.735371
v -0.000000 -49.528000 459.528112
v 35.000000 -49.527995 479.735371
v -0.000000 -40.414519 450.414629
v 35.000000 -20.207259 450.414629
v 35.000000 -21.206339 458.003394
v 35.000000 -24.135493 465.074998
v 35.000000 -28.795104 471.147522
v 35.000000 -34.867627 475.807134
v 35.000000 -41.939230 478.736290
v -0.000000 -47.169257 459.217577
v -0.000000 -44.971259 458.307136
v -0.000000 -43.083795 456.858834
v -0.000000 -41.635494 454.971370
v -0.000000 -40.725053 452.773372
v -35.000000 -20.207259 450.414629
v -35.000000 -41.939230 478.736290
v -35.000000 -34.867627 475.807134
v -35.000000 -28.795104 471.147522
v -35.000000 -24.135493 465.074998
v -35.000000 -21.206339 458.003394
v 0.000000 40.414519 450.414629
v -35.000000 20.207259 450.414629
v -35.000000 17.831089 468.463440
v -35.000000 10.864509 485.282255
v -35.000000 -0.217720 499.724899
v -35.000000 -14.660362 510.807131
v -35.000000 -31.479175 517.773715
v 0.000000 -26.249147 537.292428
v 0.000000 -4.556729 528.307130
v 0.000000 14.070972 514.013588
v 0.000000 28.364509 495.385883
v 0.000000 37.349803 473.693463
v 35.000000 20.207259 450.414629
v 35.000000 -31.479175 517.773715
v 35.000000 -14.660362 510.807131
v 35.000000 -0.217720 499.724899
v 35.000000 10.864509 485.282255
v 35.000000 17.831089 468.463440
vt -3.500000 -2.020726 0.000000
vt 0.000000 -4.041452 0.000000
vt -3.500000 2.020726 0.000000
vt -0.000000 4.041452 0.000000
vt 3.500000 -2.020726 0.000000
vt 3.500000 2.020726 0.000000
vt -2.309401 5.656854 0.000000
vt -6.350853 5.656854 0.000000
vt 0.000000 0.000000 0.000000
vt -8.660254 0.000000 0.000000
vt -2.309401 5.656854 0.000000
vt -6.350853 5.656854 0.000000
vt -0.000000 0.000000 0.000000
vt -8.660254 0.000000 0.000000
vt -2.309401 5.656854 0.000000
vt -6.350853 5.656854 0.000000
vt -0.000000 0.000000 0.000000
vt -8.660254 0.000000 0.000000
vt -2.309401 5.656854 0.000000
vt -6.350853 5.656854 0.000000
vt 0.000000 -0.000000 0.000000
vt -8.660254 0.000000 0.000000
vt -2.309401 5.656854 0.000000
vt -6.350853 5.656854 0.000000
vt 0.000000 0.000000 0.000000
vt -8.660254 0.000000 0.000000
vt -2.309401 5.656854 0.000000
vt -6.350853 5.656854 0.000000
vt 0.000000 0.000000 0.000000
vt -8.660254 -0.000000 0.000000
vt -3.500000 -2.020726 0.000000
vt 0.000000 -4.041452 0.000000
vt -3.500000 2.020726 0.000000
vt 0.000000 4.041452 0.000000
vt 3.500000 -2.020726 0.000000
vt 3.500000 2.020726 0.000000
vt 2.309401 5.656854 0.000000
vt -6.350853 5.656854 0.000000
vt 0.000000 0.000000 0.000000
vt -4.041452 0.000000 0.000000
vt 2.309401 5.656854 0.000000
vt -6.350853 5.656854 0.000000
vt 0.000000 -0.000000 0.000000
vt -4.041452 0.000000 0.000000
vt 2.309401 5.656854 0.000000
vt -6.350853 5.656854 0.000000
vt -0.000000 0.000000 0.000000
vt -4.041452 -0.000000 0.000000
vt 2.309401 5.656854 0.000000
vt -6.350853 5.656854 0.000000
vt -0.000000 0.000000 0.000000
vt -4.041452 0.000000 0.000000
vt 2.309401 5.656854 0.000000
vt -6.350853 5.656854 0.000000
vt 0.000000 0.000000 0.000000
vt -4.041452 -0.000000 0.000000
vt 2.309401 5.656854 0.000000
vt -6.350853 5.656854 0.000000
vt 0.000000 0.000000 0.000000
vt -4.041452 0.000000 0.000000
vt -0.000000 0.000010 0.000000
vt 4.041452 0.000019 0.000000
vt -0.000000 4.952799 0.000000
vt 4.041452 4.952799 0.000000
vt 4.041452 0.000010 0.000000
vt 4.041452 4.952799 0.000000
vt 0.000000 0.000019 0.000000
vt 0.000000 4.952799 0.000000
vt 4.041452 -0.000019 0.000000
vt 4.041452 4.952799 0.000000
vt -0.000000 -0.000010 0.000000
vt 0.000000 4.952799 0.000000
vt 0.000000 -0.000019 0.000000
vt 4.041452 -0.000010 0.000000
vt -0.000000 4.952799 0.000000
vt 4.041452 4.952799 0.000000
vt -2.020726 0.000000 0.000000
vt 2.020726 0.000000 0.000000
vt -2.020726 0.503103 0.000000
vt 2.020726 0.503103 0.000000
vt -2.020726 1.006206 0.000000
vt 2.020726 1.006206 0.000000
vt -2.020726 1.509308 0.000000
vt 2.020726 1.509308 0.000000
vt -2.020726 2.012411 0.000000
vt 2.020726 2.012411 0.000000
vt -2.020726 2.515514 0.000000
vt 2.020726 2.515514 0.000000
vt -2.020726 3.018617 0.000000
vt 2.020726 3.018617 0.000000
vt -2.020726 0.000000 0.000000
vt 2.020726 0.000000 0.000000
vt -2.020726 0.503103 0.000000
vt 2.020726 0.503103 0.000000
vt -2.020726 1.006206 0.000000
vt 2.020726 1.006206 0.000000
vt -2.020726 1.509308 0.000000
vt 2.020726 1.509308 0.000000
vt -2.020726 2.012411 0.000000
vt 2.020726 2.012411 0.000000
vt -2.020726 2.515514 0.000000
vt 2.020726 2.515514 0.000000
vt -2.020726 3.018617 0.000000
vt 2.020726 3.018617 0.000000
vt -2.020726 -0.000000 0.000000
vt 2.020726 -0.000000 0.000000
vt -2.020726 2.090177 0.000000
vt 2.020726 2.090177 0.000000
vt -2.020726 4.180354 0.000000
vt 2.020726 4.180354 0.000000
vt -2.020726 6.270531 0.000000
vt 2.020726 6.270531 0.000000
vt -2.020726 8.360708 0.000000
vt 2.020726 8.360708 0.000000
vt -2.020726 10.450885 0.000000
vt 2.020726 10.450885 0.000000
vt -2.020726 12.541062 0.000000
vt 2.020726 12.541062 0.000000
vt -2.020726 -0.000000 0.000000
vt 2.020726 -0.000000 0.000000
vt -2.020726 2.090177 0.000000
vt 2.020726 2.090177 0.000000
vt -2.020726 4.180354 0.000000
vt 2.020726 4.180354 0.000000
vt -2.020726 6.270531 0.000000
vt 2.020726 6.270531 0.000000
vt -2.020726 8.360708 0.000000
vt 2.020726 8.360708 0.000000
vt -2.020726 10.450885 0.000000
vt 2.020726 10.450885 0.000000
vt -2.020726 12.541062 0.000000
vt 2.020726 12.541062 0.000000
vt 4.041452 45.041463 0.000000
vt 0.000000 45.041463 0.000000
vt 4.041452 -50.000000 0.000000
vt 0.000000 -50.000000 0.000000
vt 4.041452 45.041463 0.000000
vt 0.000000 45.041463 0.000000
vt 4.041452 -50.000000 0.000000
vt 0.000000 -50.000000 0.000000
vt 0.000000 -50.000000 0.000000
vt 4.041452 -50.000000 0.000000
vt 0.000000 45.041463 0.000000
vt 4.041452 45.041463 0.000000
vt 0.934275 48.528225 0.000000
vt 2.042498 49.972490 0.000000
vt 3.486762 51.080713 0.000000
vt 4.141360 45.800339 0.000000
vt 4.434275 46.507500 0.000000
vt 5.168643 51.777372 0.000000
vt 4.900236 47.114752 0.000000
vt 5.507489 47.580713 0.000000
vt 6.214649 47.873629 0.000000
vt 6.973524 52.014989 0.000000
vt 6.973525 47.973537 0.000000
vt 11.926314 52.015014 0.000000
vt 11.926334 47.973562 0.000000
vt 0.237617 46.846344 0.000000
vt 4.041452 45.041463 0.000000
vt 0.000000 45.041463 0.000000
vt 4.041452 -50.000000 0.000000
vt -0.000000 -50.000000 0.000000
vt 4.041452 45.041463 0.000000
vt -0.000000 45.041463 0.000000
vt 4.041452 -50.000000 0.000000
vt -0.000000 -50.000000 0.000000
vt 0.000000 -50.000000 0.000000
vt 4.041452 -50.000000 0.000000
vt 0.000000 45.041463 0.000000
vt 4.041452 45.041463 0.000000
vt 3.107177 48.528225 0.000000
vt 3.803835 46.846344 0.000000
vt 1.998954 49.972490 0.000000
vt 0.554690 51.080713 0.000000
vt -0.099908 45.800339 0.000000
vt -0.392823 46.507500 0.000000
vt -1.127192 51.777372 0.000000
vt -0.858784 47.114752 0.000000
vt -1.466037 47.580713 0.000000
vt -2.173197 47.873629 0.000000
vt -2.932073 52.014989 0.000000
vt -2.932074 47.973537 0.000000
vt -7.884862 52.015014 0.000000
vt -7.884882 47.973562 0.000000
vn 0.000000 0.000000 -0.100000
vn 0.000000 0.000000 -0.100000
vn 0.000000 0.000000 -0.100000
vn 0.000000 0.000000 -0.100000
vn 0.000000 0.000000 -0.100000
vn 0.000000 0.000000 -0.100000
vn -0.035355 -0.070711 -0.061237
vn -0.035355 -0.070711 -0.061237
vn -0.035355 -0.070711 -0.061237
vn -0.035355 -0.070711 -0.061237
vn -0.070711 -0.070711 0.000000
vn -0.070711 -0.070711 0.000000
vn -0.070711 -0.070711 0.000000
vn -0.070711 -0.070711 0.000000
vn -0.035355 -0.070710 0.061238
vn -0.035355 -0.070710 0.061238
vn -0.035355 -0.070710 0.061238
vn -0.035355 -0.070710 0.061238
vn 0.035355 -0.070710 0.061238
vn 0.035355 -0.070710 0.061238
vn 0.035355 -0.070710 0.061238
vn 0.035355 -0.070710 0.061238
vn 0.070711 -0.070711 0.000000
vn 0.070711 -0.070711 0.000000
vn 0.070711 -0.070711 0.000000
vn 0.070711 -0.070711 0.000000
vn 0.035355 -0.070711 -0.061237
vn 0.035355 -0.070711 -0.061237
vn 0.035355 -0.070711 -0.061237
vn 0.035355 -0.070711 -0.061237
vn 0.000000 -0.100000 0.000000
vn 0.000000 -0.100000 0.000000
vn 0.000000 -0.100000 0.000000
vn 0.000000 -0.100000 0.000000
vn 0.000000 -0.100000 0.000000
vn 0.000000 -0.100000 0.000000
vn 0.035355 0.070710 -0.061238
vn 0.035355 0.070710 -0.061238
vn 0.035355 0.070710 -0.061238
vn 0.035355 0.070710 -0.061238
vn -0.035355 0.070710 -0.061238
vn -0.035355 0.070710 -0.061238
vn -0.035355 0.070710 -0.061238
vn -0.035355 0.070710 -0.061238
vn -0.070711 0.070711 -0.000000
vn -0.070711 0.070711 -0.000000
vn -0.070711 0.070711 -0.000000
vn -0.070711 0.070711 -0.000000
vn -0.035355 0.070711 0.061237
vn -0.035355 0.070711 0.061237
vn -0.035355 0.070711 0.061237
vn -0.035355 0.070711 0.061237
vn 0.035355 0.070711 0.061237
vn 0.035355 0.070711 0.061237
vn 0.035355 0.070711 0.061237
vn 0.035355 0.070711 0.061237
vn 0.070711 0.070711 -0.000000
vn 0.070711 0.070711 -0.000000
vn 0.070711 0.070711 -0.000000
vn 0.070711 0.070711 -0.000000
vn 0.050000 0.000000 0.086603
vn 0.050000 0.000000 0.086603
vn 0.050000 0.000000 0.086603
vn 0.050000 0.000000 0.086603
vn -0.050000 0.000000 0.086603
vn -0.050000 0.000000 0.086603
vn -0.050000 0.000000 0.086603
vn -0.050000 0.000000 0.086603
vn -0.050000 -0.000000 -0.086603
vn -0.050000 -0.000000 -0.086603
vn -0.050000 -0.000000 -0.086603
vn -0.050000 -0.000000 -0.086603
vn 0.050000 -0.000000 -0.086603
vn 0.050000 -0.000000 -0.086603
vn 0.050000 -0.000000 -0.086603
vn 0.050000 -0.000000 -0.086603
vn 0.050000 -0.086603 -0.000000
vn 0.050000 -0.086603 -0.000000
vn 0.050000 -0.083652 -0.022414
vn 0.050000 -0.083652 -0.022414
vn 0.050000 -0.075000 -0.043301
vn 0.050000 -0.075000 -0.043301
vn 0.050000 -0.061237 -0.061237
vn 0.050000 -0.061237 -0.061237
vn 0.050000 -0.043301 -0.075000
vn 0.050000 -0.043301 -0.075000
vn 0.050000 -0.022414 -0.083652
vn 0.050000 -0.022414 -0.083652
vn 0.050000 -0.000000 -0.086603
vn 0.050000 -0.000000 -0.086603
vn -0.050000 -0.086603 -0.000000
vn -0.050000 -0.086603 -0.000000
vn -0.050000 -0.083652 -0.022414
vn -0.050000 -0.083652 -0.022414
vn -0.050000 -0.075000 -0.043301
vn -0.050000 -0.075000 -0.043301
vn -0.050000 -0.061237 -0.061237
vn -0.050000 -0.061237 -0.061237
vn -0.050000 -0.043301 -0.075000
vn -0.050000 -0.043301 -0.075000
vn -0.050000 -0.022414 -0.083652
vn -0.050000 -0.022414 -0.083652
vn -0.050000 -0.000000 -0.086603
vn -0.050000 -0.000000 -0.086603
vn -0.050000 0.086603 0.000000
vn -0.050000 0.086603 0.000000
vn -0.050000 0.083652 0.022414
vn -0.050000 0.083652 0.022414
vn -0.050000 0.075000 0.043301
vn -0.050000 0.075000 0.043301
vn -0.050000 0.061237 0.061237
vn -0.050000 0.061237 0.061237
vn -0.050000 0.043301 0.075000
vn -0.050000 0.043301 0.075000
vn -0.050000 0.022414 0.083652
vn -0.050000 0.022414 0.083652
vn -0.050000 0.000000 0.086603
vn -0.050000 0.000000 0.086603
vn 0.050000 0.086603 0.000000
vn 0.050000 0.086603 0.000000
vn 0.050000 0.083652 0.022414
vn 0.050000 0.083652 0.022414
vn 0.050000 0.075000 0.043301
vn 0.050000 0.075000 0.043301
vn 0.050000 0.061237 0.061237
vn 0.050000 0.061237 0.061237
vn 0.050000 0.043301 0.075000
vn 0.050000 0.043301 0.075000
vn 0.050000 0.022414 0.083652
vn 0.050000 0.022414 0.083652
vn 0.050000 0.000000 0.086603
vn 0.050000 0.000000 0.086603
vn 0.050000 -0.086603 0.000000
vn 0.050000 -0.086603 0.000000
vn 0.050000 -0.086603 0.000000
vn -0.050000 -0.086603 0.000000
vn -0.050000 -0.086603 0.000000
vn -0.050000 -0.086603 0.000000
vn -0.100000 0.000000 0.000000
vn -0.100000 0.000000 0.000000
vn -0.100000 0.000000 0.000000
vn -0.100000 0.000000 0.000000
vn -0.100000 0.000000 0.000000
vn -0.100000 0.000000 0.000000
vn -0.100000 0.000000 0.000000
vn -0.100000 0.000000 0.000000
vn -0.100000 0.000000 0.000000
vn -0.100000 0.000000 0.000000
vn -0.100000 0.000000 0.000000
vn -0.100000 0.000000 0.000000
vn -0.100000 0.000000 0.000000
vn -0.100000 0.000000 0.000000
vn -0.100000 0.000000 0.000000
vn -0.100000 0.000000 0.000000
vn -0.100000 0.000000 0.000000
vn -0.100000 0.000000 0.000000
vn -0.050000 0.086603 0.000000
vn -0.050000 0.086603 0.000000
vn 0.050000 0.086603 0.000000
vn 0.050000 0.086603 0.000000
vn 0.100000 -0.000000 0.000000
vn 0.100000 -0.000000 0.000000
vn 0.100000 -0.000000 0.000000
vn 0.100000 -0.000000 0.000000
vn 0.100000 -0.000000 0.000000
vn 0.100000 -0.000000 0.000000
vn 0.100000 -0.000000 0.000000
vn 0.100000 -0.000000 0.000000
vn 0.100000 -0.000000 0.000000
vn 0.100000 -0.000000 0.000000
vn 0.100000 -0.000000 0.000000
vn 0.100000 -0.000000 0.000000
vn 0.100000 -0.000000 0.000000
vn 0.100000 -0.000000 0.000000
vn 0.100000 -0.000000 0.000000
vn 0.100000 -0.000000 0.000000
vn 0.100000 -0.000000 0.000000
vn 0.100000 -0.000000 0.000000
usemtl Steel_-_Satin
f 2/1/1 3/2/2 1/3/3
f 1/3/3 3/2/2 6/4/4
f 6/4/4 3/2/2 4/5/5
f 6/4/4 4/5/5 5/6/6
f 7/7/7 8/8/8 10/9/9
f 10/9/9 8/8/8 9/10/10
f 8/11/11 11/12/12 9/13/13
f 9/13/13 11/12/12 12/14/14
f 11/15/15 13/16/16 12/17/17
f 12/17/17 13/16/16 14/18/18
f 13/19/19 15/20/20 14/21/21
f 14/21/21 15/20/20 16/22/22
f 15/23/23 17/24/24 16/25/25
f 16/25/25 17/24/24 18/26/26
f 17/27/27 7/28/28 18/29/29
f 18/29/29 7/28/28 10/30/30
f 8/31/31 7/32/32 11/33/33
f 11/33/33 7/32/32 13/34/34
f 13/34/34 7/32/32 17/35/35
f 13/34/34 17/35/35 15/36/36
f 18/37/37 10/38/38 20/39/39
f 20/39/39 10/38/38 19/40/40
f 10/41/41 9/42/42 19/43/43
f 19/43/43 9/42/42 21/44/44
f 9/45/45 12/46/46 21/47/47
f 21/47/47 12/46/46 22/48/48
f 12/49/49 14/50/50 22/51/51
f 22/51/51 14/50/50 23/52/52
f 14/53/53 16/54/54 23/55/55
f 23/55/55 16/54/54 24/56/56
f 16/57/57 18/58/58 24/59/59
f 24/59/59 18/58/58 20/60/60
f 25/61/61 26/62/62 24/63/63
f 24/63/63 26/62/62 23/64/64
f 27/65/65 22/66/66 26/67/67
f 26/67/67 22/66/66 23/68/68
f 29/69/69 19/70/70 28/71/71
f 28/71/71 19/70/70 21/72/72
f 29/73/73 30/74/74 19/75/75
f 19/75/75 30/74/74 20/76/76
f 31/77/77 32/78/78 42/79/79
f 42/79/79 32/78/78 33/80/80
f 42/79/79 33/80/80 41/81/81
f 41/81/81 33/80/80 34/82/82
f 41/81/81 34/82/82 40/83/83
f 40/83/83 34/82/82 35/84/84
f 40/83/83 35/84/84 39/85/85
f 39/85/85 35/84/84 36/86/86
f 39/85/85 36/86/86 38/87/87
f 38/87/87 36/86/86 37/88/88
f 38/87/87 37/88/88 29/89/89
f 29/89/89 37/88/88 30/90/90
f 43/91/91 31/92/92 48/93/93
f 48/93/93 31/92/92 42/94/94
f 48/93/93 42/94/94 47/95/95
f 47/95/95 42/94/94 41/96/96
f 47/95/95 41/96/96 46/97/97
f 46/97/97 41/96/96 40/98/98
f 46/97/97 40/98/98 45/99/99
f 45/99/99 40/98/98 39/100/100
f 45/99/99 39/100/100 44/101/101
f 44/101/101 39/100/100 38/102/102
f 44/101/101 38/102/102 28/103/103
f 28/103/103 38/102/102 29/104/104
f 49/105/105 50/106/106 60/107/107
f 60/107/107 50/106/106 51/108/108
f 60/107/107 51/108/108 59/109/109
f 59/109/109 51/108/108 52/110/110
f 59/109/109 52/110/110 58/111/111
f 58/111/111 52/110/110 53/112/112
f 58/111/111 53/112/112 57/113/113
f 57/113/113 53/112/112 54/114/114
f 57/113/113 54/114/114 56/115/115
f 56/115/115 54/114/114 55/116/116
f 56/115/115 55/116/116 26/117/117
f 26/117/117 55/116/116 27/118/118
f 61/119/119 49/120/120 66/121/121
f 66/121/121 49/120/120 60/122/122
f 66/121/121 60/122/122 65/123/123
f 65/123/123 60/122/122 59/124/124
f 65/123/123 59/124/124 64/125/125
f 64/125/125 59/124/124 58/126/126
f 64/125/125 58/126/126 63/127/127
f 63/127/127 58/126/126 57/128/128
f 63/127/127 57/128/128 62/129/129
f 62/129/129 57/128/128 56/130/130
f 62/129/129 56/130/130 25/131/131
f 25/131/131 56/130/130 26/132/132
f 32/133/78 31/134/133 2/135/134
f 2/135/134 31/134/133 3/136/135
f 31/137/136 43/138/91 3/139/137
f 3/139/137 43/138/91 4/140/138
f 5/141/139 4/142/140 50/143/141
f 50/143/141 4/142/140 43/144/142
f 50/143/141 43/144/142 52/145/143
f 52/145/143 43/144/142 53/146/144
f 53/146/144 43/144/142 54/147/145
f 54/147/145 43/144/142 48/148/146
f 54/147/145 48/148/146 47/149/147
f 54/147/145 47/149/147 55/150/148
f 55/150/148 47/149/147 46/151/149
f 55/150/148 46/151/149 45/152/150
f 45/152/150 44/153/151 55/150/148
f 55/150/148 44/153/151 27/154/152
f 27/154/152 44/153/151 28/155/153
f 27/154/152 28/155/153 22/156/154
f 22/156/154 28/155/153 21/157/155
f 52/145/143 51/158/156 50/143/141
f 50/159/106 49/160/105 5/161/157
f 5/161/157 49/160/105 6/162/158
f 49/163/120 61/164/119 6/165/159
f 6/165/159 61/164/119 1/166/160
f 2/167/161 1/168/162 32/169/163
f 32/169/163 1/168/162 61/170/164
f 32/169/163 61/170/164 65/171/165
f 65/171/165 61/170/164 66/172/166
f 65/171/165 64/173/167 32/169/163
f 32/169/163 64/173/167 63/174/168
f 32/169/163 63/174/168 33/175/169
f 33/175/169 63/174/168 34/176/170
f 34/176/170 63/174/168 62/177/171
f 34/176/170 62/177/171 35/178/172
f 35/178/172 62/177/171 36/179/173
f 36/179/173 62/177/171 37/180/174
f 37/180/174 62/177/171 25/181/175
f 37/180/174 25/181/175 30/182/176
f 30/182/176 25/181/175 24/183/177
f 30/182/176 24/183/177 20/184/178

# 66 vertices
# 184 texture params
# 178 normals
# 128 facets

# 1 groups
